<svg width="540" height="347" viewBox="0 0 540 347" fill="none" xmlns="http://www.w3.org/2000/svg">
<rect width="540" height="347" fill="#D9D9D9"/>
<path d="M25.388 160.728V186H19.232V160.728H25.388ZM58.4692 160.728V186H52.3132V170.844L46.6612 186H41.6932L36.0052 170.808V186H29.8492V160.728H37.1212L44.2132 178.224L51.2332 160.728H58.4692ZM78.6281 181.536H69.1961L67.6841 186H61.2401L70.3841 160.728H77.5121L86.6561 186H80.1401L78.6281 181.536ZM77.0441 176.784L73.9121 167.532L70.8161 176.784H77.0441ZM106.215 168.72C105.759 167.88 105.099 167.244 104.235 166.812C103.395 166.356 102.399 166.128 101.247 166.128C99.255 166.128 97.659 166.788 96.459 168.108C95.259 169.404 94.659 171.144 94.659 173.328C94.659 175.656 95.283 177.48 96.531 178.8C97.803 180.096 99.543 180.744 101.751 180.744C103.263 180.744 104.535 180.36 105.567 179.592C106.623 178.824 107.391 177.72 107.871 176.28H100.059V171.744H113.451V177.468C112.995 179.004 112.215 180.432 111.111 181.752C110.031 183.072 108.651 184.14 106.971 184.956C105.291 185.772 103.395 186.18 101.283 186.18C98.787 186.18 96.555 185.64 94.587 184.56C92.643 183.456 91.119 181.932 90.015 179.988C88.935 178.044 88.395 175.824 88.395 173.328C88.395 170.832 88.935 168.612 90.015 166.668C91.119 164.7 92.643 163.176 94.587 162.096C96.531 160.992 98.751 160.44 101.247 160.44C104.271 160.44 106.815 161.172 108.879 162.636C110.967 164.1 112.347 166.128 113.019 168.72H106.215ZM123.017 165.66V170.772H131.261V175.524H123.017V181.068H132.341V186H116.861V160.728H132.341V165.66H123.017ZM164.957 160.728V186H158.801V170.844L153.149 186H148.181L142.493 170.808V186H136.337V160.728H143.609L150.701 178.224L157.721 160.728H164.957ZM199.621 186H193.465L183.169 170.412V186H177.013V160.728H183.169L193.465 176.388V160.728H199.621V186ZM219.816 181.536H210.384L208.872 186H202.428L211.572 160.728H218.7L227.844 186H221.328L219.816 181.536ZM218.232 176.784L215.1 167.532L212.004 176.784H218.232ZM207.936 158.964C208.512 155.412 210.168 153.636 212.904 153.636C213.432 153.636 213.888 153.72 214.272 153.888C214.68 154.032 215.172 154.26 215.748 154.572C216.18 154.812 216.528 154.992 216.792 155.112C217.056 155.208 217.332 155.256 217.62 155.256C218.508 155.256 219.024 154.716 219.168 153.636H222.336C221.76 157.188 220.104 158.964 217.368 158.964C216.84 158.964 216.372 158.892 215.964 158.748C215.58 158.58 215.1 158.34 214.524 158.028C214.092 157.788 213.744 157.62 213.48 157.524C213.216 157.404 212.94 157.344 212.652 157.344C211.764 157.344 211.236 157.884 211.068 158.964H207.936ZM242.579 186.252C240.203 186.252 238.019 185.7 236.027 184.596C234.059 183.492 232.487 181.956 231.311 179.988C230.159 177.996 229.583 175.764 229.583 173.292C229.583 170.82 230.159 168.6 231.311 166.632C232.487 164.664 234.059 163.128 236.027 162.024C238.019 160.92 240.203 160.368 242.579 160.368C244.955 160.368 247.127 160.92 249.095 162.024C251.087 163.128 252.647 164.664 253.775 166.632C254.927 168.6 255.503 170.82 255.503 173.292C255.503 175.764 254.927 177.996 253.775 179.988C252.623 181.956 251.063 183.492 249.095 184.596C247.127 185.7 244.955 186.252 242.579 186.252ZM242.579 180.636C244.595 180.636 246.203 179.964 247.403 178.62C248.627 177.276 249.239 175.5 249.239 173.292C249.239 171.06 248.627 169.284 247.403 167.964C246.203 166.62 244.595 165.948 242.579 165.948C240.539 165.948 238.907 166.608 237.683 167.928C236.483 169.248 235.883 171.036 235.883 173.292C235.883 175.524 236.483 177.312 237.683 178.656C238.907 179.976 240.539 180.636 242.579 180.636ZM272.712 165.66V170.772H280.956V175.524H272.712V181.068H282.036V186H266.556V160.728H282.036V165.66H272.712ZM308.641 186H302.485L292.189 170.412V186H286.033V160.728H292.189L302.485 176.388V160.728H308.641V186ZM312.059 173.328C312.059 170.832 312.599 168.612 313.679 166.668C314.759 164.7 316.259 163.176 318.179 162.096C320.123 160.992 322.319 160.44 324.767 160.44C327.767 160.44 330.335 161.232 332.471 162.816C334.607 164.4 336.035 166.56 336.755 169.296H329.987C329.483 168.24 328.763 167.436 327.827 166.884C326.915 166.332 325.871 166.056 324.695 166.056C322.799 166.056 321.263 166.716 320.087 168.036C318.911 169.356 318.323 171.12 318.323 173.328C318.323 175.536 318.911 177.3 320.087 178.62C321.263 179.94 322.799 180.6 324.695 180.6C325.871 180.6 326.915 180.324 327.827 179.772C328.763 179.22 329.483 178.416 329.987 177.36H336.755C336.035 180.096 334.607 182.256 332.471 183.84C330.335 185.4 327.767 186.18 324.767 186.18C322.319 186.18 320.123 185.64 318.179 184.56C316.259 183.456 314.759 181.932 313.679 179.988C312.599 178.044 312.059 175.824 312.059 173.328ZM352.477 186.252C350.101 186.252 347.917 185.7 345.925 184.596C343.957 183.492 342.385 181.956 341.209 179.988C340.057 177.996 339.481 175.764 339.481 173.292C339.481 170.82 340.057 168.6 341.209 166.632C342.385 164.664 343.957 163.128 345.925 162.024C347.917 160.92 350.101 160.368 352.477 160.368C354.853 160.368 357.025 160.92 358.993 162.024C360.985 163.128 362.545 164.664 363.673 166.632C364.825 168.6 365.401 170.82 365.401 173.292C365.401 175.764 364.825 177.996 363.673 179.988C362.521 181.956 360.961 183.492 358.993 184.596C357.025 185.7 354.853 186.252 352.477 186.252ZM352.477 180.636C354.493 180.636 356.101 179.964 357.301 178.62C358.525 177.276 359.137 175.5 359.137 173.292C359.137 171.06 358.525 169.284 357.301 167.964C356.101 166.62 354.493 165.948 352.477 165.948C350.437 165.948 348.805 166.608 347.581 167.928C346.381 169.248 345.781 171.036 345.781 173.292C345.781 175.524 346.381 177.312 347.581 178.656C348.805 179.976 350.437 180.636 352.477 180.636ZM391.434 186H385.278L374.982 170.412V186H368.826V160.728H374.982L385.278 176.388V160.728H391.434V186ZM414.076 160.728V165.66H407.38V186H401.224V165.66H394.528V160.728H414.076ZM430.054 186L424.798 176.46H423.322V186H417.166V160.728H427.498C429.49 160.728 431.182 161.076 432.574 161.772C433.99 162.468 435.046 163.428 435.742 164.652C436.438 165.852 436.786 167.196 436.786 168.684C436.786 170.364 436.306 171.864 435.346 173.184C434.41 174.504 433.018 175.44 431.17 175.992L437.002 186H430.054ZM423.322 172.104H427.138C428.266 172.104 429.106 171.828 429.658 171.276C430.234 170.724 430.522 169.944 430.522 168.936C430.522 167.976 430.234 167.22 429.658 166.668C429.106 166.116 428.266 165.84 427.138 165.84H423.322V172.104ZM456.382 181.536H446.95L445.438 186H438.994L448.138 160.728H455.266L464.41 186H457.894L456.382 181.536ZM454.798 176.784L451.666 167.532L448.57 176.784H454.798ZM476.661 160.728C479.325 160.728 481.653 161.256 483.645 162.312C485.637 163.368 487.173 164.856 488.253 166.776C489.357 168.672 489.909 170.868 489.909 173.364C489.909 175.836 489.357 178.032 488.253 179.952C487.173 181.872 485.625 183.36 483.609 184.416C481.617 185.472 479.301 186 476.661 186H467.193V160.728H476.661ZM476.265 180.672C478.593 180.672 480.405 180.036 481.701 178.764C482.997 177.492 483.645 175.692 483.645 173.364C483.645 171.036 482.997 169.224 481.701 167.928C480.405 166.632 478.593 165.984 476.265 165.984H473.349V180.672H476.265ZM509.081 181.536H499.649L498.137 186H491.693L500.837 160.728H507.965L517.109 186H510.593L509.081 181.536ZM507.497 176.784L504.365 167.532L501.269 176.784H507.497Z" fill="black" fill-opacity="0.5"/>
</svg>
