<svg width="160" height="47" viewBox="0 0 160 47" fill="none" xmlns="http://www.w3.org/2000/svg">
<path d="M7.19648 37V24.4L0.146484 2H6.49648L13.4965 24.35V37H7.19648ZM14.9965 20.65L12.1465 10.75L15.2465 2H21.4965L15.4465 20.65H14.9965ZM33.0469 37.05C31.8135 37.05 30.6469 36.8333 29.5469 36.4C28.4802 35.9333 27.5469 35.3167 26.7469 34.55C25.9469 33.75 25.3135 32.8167 24.8469 31.75C24.4135 30.65 24.1969 29.4833 24.1969 28.25V18.1C24.1969 16.8333 24.3969 15.65 24.7969 14.55C25.2302 13.45 25.8302 12.4833 26.5969 11.65C27.3969 10.8167 28.3302 10.1667 29.3969 9.7C30.4969 9.23333 31.7135 9 33.0469 9V14.65C32.3802 14.65 31.8135 14.8167 31.3469 15.15C30.9135 15.4833 30.5635 15.9333 30.2969 16.5C30.0635 17.0667 29.9469 17.7167 29.9469 18.45V27.9C29.9469 28.5 30.0635 29.0833 30.2969 29.65C30.5635 30.1833 30.9302 30.6167 31.3969 30.95C31.8969 31.25 32.4469 31.4 33.0469 31.4V37.05ZM35.4469 37.05V31.4C36.0802 31.4 36.6302 31.25 37.0969 30.95C37.5635 30.6167 37.9135 30.1833 38.1469 29.65C38.4135 29.1167 38.5469 28.55 38.5469 27.95V18.45C38.5469 17.75 38.4302 17.1167 38.1969 16.55C37.9635 15.95 37.6135 15.4833 37.1469 15.15C36.6802 14.8167 36.1135 14.65 35.4469 14.65V9C36.7802 9 37.9802 9.23333 39.0469 9.7C40.1469 10.1667 41.0802 10.8167 41.8469 11.65C42.6469 12.4833 43.2469 13.45 43.6469 14.55C44.0469 15.65 44.2469 16.8333 44.2469 18.1V28.25C44.2469 29.4833 44.0135 30.65 43.5469 31.75C43.1135 32.8167 42.4969 33.75 41.6969 34.55C40.8969 35.3167 39.9635 35.9333 38.8969 36.4C37.8302 36.8333 36.6802 37.05 35.4469 37.05ZM58.8344 37.25V31.5C59.5677 31.5 60.151 31.3667 60.5844 31.1C61.051 30.8 61.3844 30.45 61.5844 30.05C61.8177 29.65 61.9344 29.2667 61.9344 28.9V9.05H67.8344V29.55C67.8344 30.2167 67.651 30.9833 67.2844 31.85C66.9177 32.7167 66.351 33.5667 65.5844 34.4C64.8177 35.2333 63.8677 35.9167 62.7344 36.45C61.6344 36.9833 60.3344 37.25 58.8344 37.25ZM56.5844 37.25C55.1177 37.25 53.8177 36.9833 52.6844 36.45C51.551 35.9167 50.601 35.25 49.8344 34.45C49.101 33.65 48.551 32.8167 48.1844 31.95C47.8177 31.05 47.6344 30.2667 47.6344 29.6V9.05H53.5344V28.9C53.5344 29.2667 53.6344 29.65 53.8344 30.05C54.0677 30.45 54.401 30.8 54.8344 31.1C55.301 31.3667 55.8844 31.5 56.5844 31.5V37.25ZM71.8578 37V9H77.7578V12.35C78.1245 11.85 78.6245 11.3333 79.2578 10.8C79.9245 10.2667 80.7078 9.8 81.6078 9.4C82.5078 9 83.4578 8.8 84.4578 8.8C84.6911 8.8 84.9411 8.8 85.2078 8.8C85.4745 8.8 85.7411 8.8 86.0078 8.8L84.6578 14.6C83.4911 14.6 82.3745 14.9667 81.3078 15.7C80.2745 16.4 79.4245 17.3 78.7578 18.4C78.0911 19.4667 77.7578 20.5667 77.7578 21.7V37H71.8578ZM95.1535 37V7.95H87.4035V2H109.054V7.95H101.254V37H95.1535ZM111.946 37V9H117.846V12.35C118.212 11.85 118.712 11.3333 119.346 10.8C120.012 10.2667 120.796 9.8 121.696 9.4C122.596 9 123.546 8.8 124.546 8.8C124.779 8.8 125.029 8.8 125.296 8.8C125.562 8.8 125.829 8.8 126.096 8.8L124.746 14.6C123.579 14.6 122.462 14.9667 121.396 15.7C120.362 16.4 119.512 17.3 118.846 18.4C118.179 19.4667 117.846 20.5667 117.846 21.7V37H111.946ZM129.491 37V9.35H135.291V37H129.491ZM132.341 6.95C131.475 6.95 130.708 6.65 130.041 6.05C129.408 5.41667 129.091 4.66667 129.091 3.8C129.091 2.93333 129.408 2.2 130.041 1.6C130.708 0.966665 131.475 0.649997 132.341 0.649997C133.208 0.649997 133.941 0.966665 134.541 1.6C135.175 2.2 135.491 2.93333 135.491 3.8C135.491 4.66667 135.175 5.41667 134.541 6.05C133.941 6.65 133.208 6.95 132.341 6.95ZM148.522 37V31.35H150.922C151.655 31.35 152.222 31.2167 152.622 30.95C153.055 30.6833 153.339 30.3833 153.472 30.05C153.639 29.7167 153.722 29.4667 153.722 29.3V16.75C153.722 16.5833 153.639 16.3333 153.472 16C153.305 15.6667 153.005 15.3667 152.572 15.1C152.172 14.8 151.589 14.65 150.822 14.65H148.422V9H150.822C152.289 9 153.555 9.28333 154.622 9.85C155.722 10.3833 156.622 11.0667 157.322 11.9C158.055 12.7 158.589 13.5333 158.922 14.4C159.289 15.2667 159.472 16.0167 159.472 16.65V29.4C159.472 30 159.289 30.7333 158.922 31.6C158.589 32.4667 158.072 33.3167 157.372 34.15C156.672 34.95 155.789 35.6333 154.722 36.2C153.655 36.7333 152.389 37 150.922 37H148.522ZM139.922 46.8V9H145.972V46.8H139.922Z" fill="#079BAB"/>
</svg>
